<svg xmlns="http://www.w3.org/2000/svg" width="745" height="93" viewBox="0 0 304.52 37.8" shape-rendering="geometricPrecision" text-rendering="geometricPrecision" image-rendering="optimizeQuality" fill-rule="evenodd" clip-rule="evenodd"><defs><style>.fil0{fill:#373435;fill-rule:nonzero}</style></defs><g id="Camada_x0020_1"><path class="fil0" d="M11.67 16.5c1.26 0 2.29-.46 3.1-1.37.82-.92 1.22-2.41 1.22-4.48 0-2.04-.44-3.66-1.31-4.85-.88-1.2-2.22-1.79-4.03-1.79-.53 0-1.11.09-1.77.27V21.3c0 1.15.12 2.04.37 2.67.25.63.66 1.08 1.22 1.35.56.28 1.36.46 2.38.53.18.53.27 1.34.27 2.44-1.36-.08-3.49-.12-6.4-.12-3.04 0-5.28.04-6.72.12 0-1.15.08-1.96.24-2.44.73-.05 1.28-.19 1.65-.41.36-.22.62-.6.78-1.14.16-.53.24-1.34.24-2.41V7.86c0-1.08-.07-1.87-.22-2.38-.14-.51-.39-.88-.75-1.1-.35-.22-.91-.37-1.66-.45C.09 3.35 0 2.54 0 1.49c2.28.08 4.26.12 5.93.12l4.05-.04c.68-.02 1.49-.04 2.44-.04 6.55 0 9.82 2.65 9.82 7.94 0 1.81-.37 3.44-1.1 4.89-.73 1.46-1.81 2.6-3.24 3.44-1.43.84-3.14 1.26-5.13 1.26-1.13 0-2.03-.13-2.71-.4-.05-.42-.08-.7-.08-.86 0-.58.09-1.06.28-1.45.41.1.89.15 1.41.15z"/><path id="1" class="fil0" d="M41.73 11.04c-.24 1.52-.35 3.07-.35 4.64 0 .52.01.9.03 1.14-.75.29-1.87.43-3.34.43-.02-1-.18-1.7-.47-2.12-.29-.42-.69-.63-1.21-.63-.4 0-.82.23-1.26.69-.45.46-.81 1.06-1.1 1.82-.29.76-.43 1.55-.43 2.36v1.93c0 1.15.12 2.04.37 2.67.25.63.65 1.08 1.2 1.35.55.28 1.33.46 2.35.53.19.53.28 1.34.28 2.44-1.39-.08-3.43-.12-6.13-.12-3.04 0-5.28.04-6.72.12 0-1.05.08-1.86.24-2.44.73-.05 1.28-.19 1.65-.41.36-.22.63-.6.78-1.14.16-.53.24-1.34.24-2.41v-5.27c0-.81-.07-1.43-.2-1.85a1.55 1.55 0 0 0-.78-.94c-.4-.21-1.03-.34-1.89-.39 0-1.02.16-1.8.47-2.32 1.39-.03 2.74-.16 4.05-.41 1.31-.25 2.29-.55 2.95-.89.76.29 1.14 1.01 1.14 2.16 0 .53-.06 1.11-.18 1.75-.12.64-.27 1.32-.45 2.03.42-1.29.74-2.11.98-2.48.6-.97 1.33-1.74 2.18-2.32.85-.57 1.77-.86 2.77-.86 1.07 0 2.02.31 2.83.94z"/><path id="2" class="fil0" d="M49.04 6.8c-.97 0-1.76-.26-2.36-.77-.6-.51-.9-1.18-.9-2.02 0-.92.32-1.65.96-2.18.64-.54 1.46-.81 2.45-.81 1.08 0 1.91.26 2.5.79.59.52.88 1.24.88 2.16 0 .81-.32 1.49-.96 2.02-.64.54-1.5.81-2.57.81zm-5.31 21.49c0-1.05.09-1.86.28-2.44 1.05-.05 1.75-.3 2.1-.76.35-.46.53-1.34.53-2.65v-6.25c0-.97-.19-1.66-.57-2.06-.38-.41-1.16-.64-2.34-.69 0-1 .15-1.77.44-2.32 1.28 0 2.63-.14 4.04-.41 1.42-.28 2.43-.57 3.03-.89.76.32 1.14 1.01 1.14 2.09v10.53c0 1.31.17 2.19.51 2.65.34.46.99.71 1.96.76.16.5.24 1.31.24 2.44-1.13-.08-3.01-.12-5.66-.12-2.7 0-4.6.04-5.7.12z"/><path id="3" class="fil0" d="M80.83 25.85c.2.5.31 1.31.31 2.44-2.28-.08-3.92-.12-4.91-.12-2.54 0-4.43.04-5.66.12 0-1.07.1-1.89.31-2.44.76 0 1.33-.27 1.69-.82.37-.55.55-1.51.55-2.87v-4.12c0-1.6-.24-2.74-.72-3.4-.49-.67-1.23-1.01-2.22-1.01-1.05 0-1.95.56-2.7 1.67-.74 1.12-1.11 2.66-1.11 4.62v2.52c0 1.31.17 2.2.51 2.69.34.48.91.72 1.73.72.2.58.31 1.39.31 2.44-1.13-.08-2.93-.12-5.42-.12-2.67 0-4.6.04-5.78.12 0-1.13.11-1.94.32-2.44 1.02 0 1.7-.23 2.06-.7.35-.47.53-1.38.53-2.71v-5.82c0-.81-.07-1.43-.2-1.85a1.55 1.55 0 0 0-.78-.94c-.4-.21-1.03-.34-1.89-.39 0-1.02.16-1.8.47-2.32 1.39-.03 2.74-.16 4.05-.41 1.31-.25 2.29-.55 2.95-.89.76.29 1.14 1.01 1.14 2.16 0 .71-.14 1.5-.4 2.36.05-.08.18-.33.38-.76.19-.44.43-.82.72-1.16.63-.68 1.42-1.25 2.36-1.71.94-.46 1.99-.69 3.14-.69 1.81 0 3.31.52 4.5 1.55 1.19 1.04 1.79 2.65 1.79 4.85v6.02c0 1.28.14 2.17.43 2.67s.8.74 1.54.74z"/><path id="4" class="fil0" d="M92.53 28.53c-2.8 0-5.07-.8-6.81-2.38-1.75-1.59-2.62-3.88-2.62-6.9 0-1.62.36-3.15 1.06-4.59a8.648 8.648 0 0 1 3.13-3.5c1.37-.89 3.03-1.34 4.97-1.34 1.41 0 2.65.14 3.71.42 1.06.27 2.03.68 2.89 1.23-.26 1.23-.39 2.86-.39 4.88-.76.34-1.8.51-3.11.51-.08-1.5-.39-2.64-.94-3.44-.55-.8-1.27-1.2-2.16-1.2-1.08 0-1.91.58-2.52 1.75-.6 1.16-.9 2.74-.9 4.73 0 1.86.45 3.47 1.36 4.82.9 1.35 2.22 2.02 3.94 2.02 1.68 0 3.06-.51 4.13-1.53.55.5.87 1.12.94 1.88-.7.84-1.63 1.49-2.77 1.95-1.14.46-2.44.69-3.91.69z"/><path id="5" class="fil0" d="M106.8 6.8c-.97 0-1.76-.26-2.36-.77-.6-.51-.9-1.18-.9-2.02 0-.92.32-1.65.96-2.18.64-.54 1.46-.81 2.45-.81 1.08 0 1.91.26 2.5.79.59.52.88 1.24.88 2.16 0 .81-.32 1.49-.96 2.02-.64.54-1.5.81-2.57.81zm-5.31 21.49c0-1.05.09-1.86.28-2.44 1.05-.05 1.75-.3 2.1-.76.35-.46.53-1.34.53-2.65v-6.25c0-.97-.19-1.66-.57-2.06-.38-.41-1.16-.64-2.34-.69 0-1 .15-1.77.44-2.32 1.28 0 2.63-.14 4.04-.41 1.42-.28 2.43-.57 3.03-.89.76.32 1.14 1.01 1.14 2.09v10.53c0 1.31.17 2.19.51 2.65.34.46.99.71 1.96.76.16.5.24 1.31.24 2.44-1.13-.08-3.01-.12-5.66-.12-2.7 0-4.6.04-5.7.12z"/><path id="6" class="fil0" d="M126.95 28.53c-.94 0-1.88-.13-2.82-.4v2.68c0 1.15.12 2.04.37 2.67.25.63.65 1.08 1.2 1.35.55.28 1.33.45 2.35.53.19.53.28 1.34.28 2.44-1.36-.08-3.41-.12-6.13-.12-3.01 0-5.25.04-6.72.12 0-1.02.08-1.83.24-2.44.73-.05 1.28-.19 1.65-.41.36-.22.63-.6.78-1.14.16-.54.24-1.34.24-2.42V16.62c0-.81-.07-1.43-.2-1.85a1.55 1.55 0 0 0-.78-.94c-.4-.21-1.03-.34-1.89-.39 0-1.02.16-1.8.47-2.32 1.39-.03 2.74-.16 4.05-.41 1.31-.25 2.29-.55 2.95-.89.76.29 1.14 1.01 1.14 2.16 0 .32-.06.65-.16.99.31-.42.6-.75.86-.99.53-.55 1.25-1.04 2.16-1.49.92-.44 1.93-.67 3.03-.67 2.38 0 4.27.68 5.66 2.03 1.39 1.35 2.08 3.38 2.08 6.11 0 2.04-.45 3.87-1.36 5.48a9.422 9.422 0 0 1-3.81 3.75c-1.63.89-3.51 1.34-5.64 1.34zm1.26-15.48c-1.12 0-2.09.54-2.89 1.63-.8 1.08-1.19 2.75-1.19 5.01v5.14c.41.45.85.78 1.31 1.01.46.22.99.33 1.59.33 1.29 0 2.41-.53 3.38-1.59.97-1.06 1.46-2.93 1.46-5.6 0-1.7-.32-3.12-.95-4.25-.63-1.12-1.53-1.68-2.71-1.68z"/><path id="7" class="fil0" d="M159.61 24.72c.02.15.04.4.04.74 0 .63-.12 1.22-.36 1.77-2.15.08-4.1.51-5.85 1.3-.45-.19-.77-.46-.97-.81-.19-.35-.29-.84-.29-1.47 0-.26.05-.76.16-1.5-.42.97-.97 1.73-1.65 2.28-1.1.95-2.64 1.42-4.6 1.42-1.78 0-3.16-.38-4.13-1.14-.97-.76-1.45-1.85-1.45-3.26 0-2.23 1.05-3.82 3.14-4.78 2.1-.95 4.75-1.65 7.94-2.1 0-1.15-.06-2.02-.18-2.61-.11-.59-.34-1.08-.68-1.48-.58-.65-1.31-.98-2.2-.98-1 0-1.74.42-2.22 1.26-.49.84-.78 1.89-.89 3.14-.76 0-1.39-.02-1.9-.08a5.42 5.42 0 0 1-1.4-.31c.05-.68.08-1.23.08-1.65 0-1.1-.1-2.12-.31-3.07 1.12-.49 2.4-.89 3.83-1.17 1.42-.29 2.78-.44 4.06-.44 2.68 0 4.61.61 5.82 1.81.58.58 1.01 1.37 1.3 2.38.28 1.01.43 2.39.43 4.14v3.38c0 .89.05 1.56.15 1.99.11.43.32.74.63.92.32.18.82.29 1.5.32zm-8.02-5.43c-1.78.32-3.12.74-4.01 1.26-.89.52-1.33 1.34-1.33 2.44 0 .7.17 1.23.53 1.59.35.35.79.53 1.31.53.58 0 1.14-.19 1.67-.55.54-.37.98-.91 1.32-1.63.34-.72.51-1.59.51-2.62v-1.02z"/><path id="8" class="fil0" d="M167.31 6.8c-.97 0-1.76-.26-2.36-.77-.6-.51-.9-1.18-.9-2.02 0-.92.32-1.65.96-2.18.64-.54 1.46-.81 2.46-.81 1.07 0 1.9.26 2.49.79.59.52.88 1.24.88 2.16 0 .81-.32 1.49-.96 2.02-.64.54-1.5.81-2.57.81zM162 28.29c0-1.05.09-1.86.28-2.44 1.05-.05 1.75-.3 2.1-.76.35-.46.53-1.34.53-2.65v-6.25c0-.97-.19-1.66-.57-2.06-.38-.41-1.16-.64-2.34-.69 0-1 .15-1.77.44-2.32 1.28 0 2.63-.14 4.04-.41 1.42-.28 2.43-.57 3.03-.89.76.32 1.14 1.01 1.14 2.09v10.53c0 1.31.17 2.19.51 2.65.34.46.99.71 1.96.76.16.5.24 1.31.24 2.44-1.13-.08-3.01-.12-5.66-.12-2.7 0-4.6.04-5.7.12z"/><path id="9" class="fil0" d="M190.18 15.25c-.34.21-.79.38-1.34.51s-1.11.19-1.69.19c-.13-1.07-.51-1.96-1.14-2.67-.63-.71-1.49-1.06-2.59-1.06-.6 0-1.08.15-1.44.45-.35.3-.53.7-.53 1.2 0 .42.09.77.28 1.06.18.29.58.61 1.2.96.61.36 1.55.78 2.81 1.28 1.52.6 2.69 1.17 3.51 1.71.83.54 1.42 1.13 1.77 1.77.35.64.53 1.41.53 2.3 0 1.75-.74 3.12-2.22 4.1-1.48.99-3.5 1.48-6.07 1.48-1.55 0-2.85-.11-3.91-.34a16.12 16.12 0 0 1-3.2-1.04c.1-.65.16-1.49.16-2.51 0-.95-.04-1.73-.12-2.36.36-.21.84-.37 1.41-.49.58-.12 1.15-.18 1.73-.18.13 1.42.54 2.5 1.22 3.24.68.75 1.56 1.12 2.63 1.12.76 0 1.38-.17 1.85-.53.47-.35.71-.82.71-1.39a1.9 1.9 0 0 0-.75-1.55c-.5-.41-1.51-.91-3.03-1.52-1.36-.52-2.43-1.03-3.22-1.53-.78-.5-1.39-1.11-1.81-1.83-.41-.72-.62-1.63-.62-2.73 0-1.65.7-2.91 2.12-3.77 1.41-.86 3.17-1.3 5.26-1.3 1.37 0 2.54.1 3.54.3.99.19 1.94.52 2.83.96-.03.34-.04.88-.04 1.61 0 .97.05 1.82.16 2.56z"/><path id="10" class="fil0" d="M211.47 28.53c-1.65 0-3.19-.2-4.61-.59-1.43-.4-2.87-.99-4.31-1.77.32-1.62.47-3.68.47-6.17.92-.26 2.13-.39 3.62-.39.13 2.3.56 3.93 1.28 4.87s1.94 1.41 3.67 1.41c1.47 0 2.55-.3 3.26-.92.71-.62 1.06-1.39 1.06-2.34 0-.73-.21-1.37-.65-1.9-.43-.54-.98-1-1.65-1.38-.66-.38-1.59-.84-2.77-1.39-1.65-.76-2.99-1.48-4.02-2.14-1.04-.67-1.92-1.57-2.66-2.7-.73-1.12-1.1-2.52-1.1-4.2 0-2.52.82-4.42 2.44-5.72 1.62-1.29 3.76-1.94 6.41-1.94 1.41 0 2.82.17 4.22.51 1.4.34 2.47.74 3.2 1.22 0 2.48.09 4.36.28 5.62-.42.2-.95.36-1.6.47-.64.1-1.27.15-1.9.15-.37-2.07-.91-3.49-1.63-4.28-.72-.78-1.68-1.18-2.89-1.18-1.1 0-1.98.26-2.63.77-.66.51-.98 1.25-.98 2.22 0 .78.24 1.47.72 2.06.49.59 1.09 1.1 1.81 1.51.72.42 1.71.92 2.97 1.5 1.67.78 3.04 1.5 4.08 2.16 1.05.65 1.94 1.53 2.67 2.63.74 1.1 1.11 2.45 1.11 4.05 0 2.36-.85 4.25-2.54 5.7-1.69 1.44-4.13 2.16-7.33 2.16z"/><path id="11" class="fil0" d="M242.71 23.69c.6.79 1.12 1.32 1.55 1.59.43.28 1.02.44 1.75.5 0 .97-.13 1.76-.39 2.39-2.75 0-4.87.12-6.37.36-.73-1.1-1.73-2.47-3-4.11a88.692 88.692 0 0 0-3.83-4.62v2.64c0 1.25.14 2.12.43 2.61.29.48.81.75 1.57.8.18.5.27 1.31.27 2.44-1.17-.08-2.96-.12-5.34-.12-2.62 0-4.48.04-5.58.12 0-1.05.09-1.86.28-2.44 1.04-.05 1.74-.3 2.1-.76.35-.46.53-1.34.53-2.65V6.37c0-.97-.19-1.66-.57-2.07-.38-.4-1.16-.63-2.34-.69 0-.99.15-1.76.43-2.31 1.29 0 2.64-.14 4.05-.42 1.41-.27 2.41-.57 2.99-.88.78.31 1.18 1.01 1.18 2.08v15.84l2.71-2.4c1.28-1.15 1.92-1.94 1.92-2.36 0-.21-.08-.36-.25-.47-.17-.1-.46-.17-.85-.19-.26-.79-.39-1.59-.39-2.4 1.73.05 3.57.08 5.54.08.89 0 2.12-.03 3.69-.08 0 .97-.13 1.77-.39 2.4-1 .07-1.84.28-2.53.6-.7.33-1.52.93-2.46 1.79l-2.44 2.24c1.73 1.65 3.64 3.84 5.74 6.56z"/><path id="12" class="fil0" d="M253.32 6.8c-.97 0-1.76-.26-2.36-.77-.6-.51-.9-1.18-.9-2.02 0-.92.32-1.65.96-2.18.64-.54 1.46-.81 2.46-.81 1.07 0 1.9.26 2.49.79.59.52.89 1.24.89 2.16 0 .81-.33 1.49-.97 2.02-.64.54-1.5.81-2.57.81zm-5.31 21.49c0-1.05.1-1.86.28-2.44 1.05-.05 1.75-.3 2.1-.76.36-.46.53-1.34.53-2.65v-6.25c0-.97-.19-1.66-.57-2.06-.38-.41-1.16-.64-2.34-.69 0-1 .15-1.77.44-2.32 1.28 0 2.63-.14 4.04-.41 1.42-.28 2.43-.57 3.03-.89.76.32 1.14 1.01 1.14 2.09v10.53c0 1.31.17 2.19.51 2.65.34.46 1 .71 1.96.76.16.5.24 1.31.24 2.44-1.13-.08-3.01-.12-5.66-.12-2.7 0-4.59.04-5.7.12z"/><path id="13" class="fil0" d="M261.73 28.29c0-1.05.09-1.86.27-2.44 1.05-.05 1.75-.3 2.11-.76.35-.46.53-1.34.53-2.65V6.13c0-.86-.21-1.49-.61-1.87-.41-.38-1.18-.59-2.3-.65 0-.99.14-1.76.43-2.31 1.28 0 2.63-.14 4.05-.42 1.41-.27 2.41-.57 2.98-.88.79.31 1.18 1.01 1.18 2.08v20.36c0 1.31.17 2.19.51 2.65.34.46 1 .71 1.97.76.15.5.23 1.31.23 2.44-1.12-.08-3.01-.12-5.65-.12-2.7 0-4.6.04-5.7.12z"/><path id="14" class="fil0" d="M275.21 28.29c0-1.05.09-1.86.27-2.44 1.05-.05 1.75-.3 2.1-.76.36-.46.53-1.34.53-2.65V6.13c0-.86-.2-1.49-.61-1.87-.4-.38-1.17-.59-2.29-.65 0-.99.14-1.76.43-2.31 1.28 0 2.63-.14 4.04-.42 1.42-.27 2.41-.57 2.99-.88.79.31 1.18 1.01 1.18 2.08v20.36c0 1.31.17 2.19.51 2.65.34.46 1 .71 1.96.76.16.5.24 1.31.24 2.44-1.13-.08-3.01-.12-5.66-.12-2.7 0-4.59.04-5.69.12z"/><path id="15" class="fil0" d="M303.14 15.25c-.34.21-.78.38-1.33.51s-1.12.19-1.69.19c-.13-1.07-.51-1.96-1.14-2.67-.63-.71-1.5-1.06-2.6-1.06-.6 0-1.08.15-1.43.45-.35.3-.53.7-.53 1.2 0 .42.09.77.27 1.06.19.29.59.61 1.2.96.62.36 1.56.78 2.81 1.28 1.52.6 2.69 1.17 3.52 1.71.82.54 1.41 1.13 1.77 1.77.35.64.53 1.41.53 2.3 0 1.75-.74 3.12-2.22 4.1-1.48.99-3.51 1.48-6.07 1.48-1.55 0-2.85-.11-3.91-.34-1.06-.22-2.13-.57-3.21-1.04.11-.65.16-1.49.16-2.51 0-.95-.04-1.73-.12-2.36.37-.21.84-.37 1.42-.49.57-.12 1.15-.18 1.73-.18.13 1.42.53 2.5 1.22 3.24.68.75 1.55 1.12 2.63 1.12.76 0 1.37-.17 1.84-.53.48-.35.71-.82.71-1.39 0-.63-.25-1.15-.74-1.55-.5-.41-1.51-.91-3.03-1.52-1.36-.52-2.44-1.03-3.22-1.53-.79-.5-1.39-1.11-1.81-1.83-.42-.72-.63-1.63-.63-2.73 0-1.65.71-2.91 2.12-3.77 1.42-.86 3.17-1.3 5.27-1.3 1.36 0 2.54.1 3.54.3.99.19 1.93.52 2.82.96-.02.34-.03.88-.03 1.61 0 .97.05 1.82.15 2.56z"/></g></svg>